<?xml version="1.0" encoding="UTF-8" standalone="no"?>
<svg width="347px" height="73px" viewBox="0 0 347 73" version="1.1" xmlns="http://www.w3.org/2000/svg" xmlns:xlink="http://www.w3.org/1999/xlink" xmlns:sketch="http://www.bohemiancoding.com/sketch/ns">
    <!-- Generator: Sketch 3.0.4 (8053) - http://www.bohemiancoding.com/sketch -->
    <title>logo-purple</title>
    <desc>Created with Sketch.</desc>
    <defs></defs>
    <g id="Page-1" stroke="none" stroke-width="1" fill="none" fill-rule="evenodd" sketch:type="MSPage">
        <g id="Artboard-3" sketch:type="MSArtboardGroup" transform="translate(-64.000000, -272.000000)">
            <g id="logo-purple" sketch:type="MSLayerGroup" transform="translate(65.000000, 272.000000)">
                <path d="M74.284,13.448 L78.024,13.448 L108.692,57.988 L108.828,57.988 L108.828,13.448 L111.82,13.448 L111.82,62 L108.284,62 L77.412,17.12 L77.276,17.12 L77.276,62 L74.284,62 L74.284,13.448 Z M120.932,44.864 L120.932,45.272 C120.932,47.3120102 121.203997,49.261324 121.748,51.12 C122.292003,52.978676 123.096661,54.6106596 124.162,56.016 C125.227339,57.4213404 126.564659,58.5319959 128.174,59.348 C129.783341,60.1640041 131.653323,60.572 133.784,60.572 C137.274684,60.572 140.03999,59.6540092 142.08,57.818 C144.12001,55.9819908 145.525329,53.4320163 146.296,50.168 L148.88,50.168 C148.109329,54.2480204 146.443346,57.3759891 143.882,59.552 C141.320654,61.7280109 137.932021,62.816 133.716,62.816 C131.131987,62.816 128.876676,62.351338 126.95,61.422 C125.023324,60.492662 123.414006,59.2233414 122.122,57.614 C120.829994,56.0046586 119.86667,54.1006777 119.232,51.902 C118.59733,49.7033223 118.28,47.3346794 118.28,44.796 C118.28,42.3479878 118.608663,40.0020112 119.266,37.758 C119.923337,35.5139888 120.909327,33.5420085 122.224,31.842 C123.538673,30.1419915 125.18199,28.7820051 127.154,27.762 C129.12601,26.7419949 131.44932,26.232 134.124,26.232 C136.572012,26.232 138.736657,26.6853288 140.618,27.592 C142.499343,28.4986712 144.07466,29.7339922 145.344,31.298 C146.61334,32.8620078 147.576663,34.675323 148.234,36.738 C148.891337,38.800677 149.22,41.0106549 149.22,43.368 C149.22,43.5946678 149.208667,43.8553319 149.186,44.15 C149.163333,44.4446681 149.152,44.6826658 149.152,44.864 L120.932,44.864 Z M146.568,42.62 C146.477333,40.7159905 146.160003,38.9140085 145.616,37.214 C145.071997,35.5139915 144.267339,34.0180065 143.202,32.726 C142.136661,31.4339935 140.844674,30.4026705 139.326,29.632 C137.807326,28.8613295 136.073343,28.476 134.124,28.476 C132.038656,28.476 130.202675,28.8726627 128.616,29.666 C127.029325,30.4593373 125.692005,31.5019935 124.604,32.794 C123.515995,34.0860065 122.677336,35.5933247 122.088,37.316 C121.498664,39.0386753 121.136001,40.8066576 121,42.62 L146.568,42.62 Z M182.88,62 L180.296,62 L180.296,54.52 L180.16,54.52 C179.706664,55.8346732 179.060671,57.0019949 178.222,58.022 C177.383329,59.0420051 176.408672,59.914663 175.298,60.64 C174.187328,61.365337 172.974673,61.9093315 171.66,62.272 C170.345327,62.6346685 169.008007,62.816 167.648,62.816 C165.60799,62.816 163.874007,62.5666692 162.446,62.068 C161.017993,61.5693308 159.850671,60.9120041 158.944,60.096 C158.037329,59.2799959 157.323336,58.3620051 156.802,57.342 C156.280664,56.3219949 155.906668,55.2906719 155.68,54.248 C155.453332,53.2053281 155.317334,52.1966715 155.272,51.222 C155.226666,50.2473285 155.204,49.397337 155.204,48.672 L155.204,27.048 L157.788,27.048 L157.788,49.148 C157.788,50.0546712 157.855999,51.1539935 157.992,52.446 C158.128001,53.7380065 158.524663,54.9846607 159.182,56.186 C159.839337,57.3873393 160.825327,58.4186624 162.14,59.28 C163.454673,60.1413376 165.313321,60.572 167.716,60.572 C169.665343,60.572 171.421992,60.209337 172.986,59.484 C174.550008,58.758663 175.875995,57.7500065 176.964,56.458 C178.052005,55.1659935 178.879331,53.6246756 179.446,51.834 C180.01267,50.0433244 180.296,48.0826773 180.296,45.952 L180.296,27.048 L182.88,27.048 L182.88,62 Z M193.08,34.8 L193.284,34.8 C193.601335,33.666661 194.179329,32.6013383 195.018,31.604 C195.856671,30.6066617 196.876661,29.745337 198.078,29.02 C199.279339,28.294663 200.616659,27.7393353 202.09,27.354 C203.563341,26.9686647 205.093325,26.7986664 206.68,26.844 L206.68,29.428 C205.319993,29.2466658 203.767342,29.3826644 202.022,29.836 C200.276658,30.2893356 198.610675,31.286659 197.024,32.828 C196.38933,33.5080034 195.834002,34.1653302 195.358,34.8 C194.881998,35.4346698 194.485335,36.1373295 194.168,36.908 C193.850665,37.6786705 193.601334,38.5399952 193.42,39.492 C193.238666,40.4440048 193.125334,41.5773268 193.08,42.892 L193.08,62 L190.496,62 L190.496,27.048 L193.08,27.048 L193.08,34.8 Z M206.952,44.524 C206.952,42.0306542 207.30333,39.6846777 208.006,37.486 C208.70867,35.2873223 209.739993,33.3493417 211.1,31.672 C212.460007,29.9946583 214.137323,28.6686715 216.132,27.694 C218.126677,26.7193285 220.415987,26.232 223,26.232 C225.584013,26.232 227.873323,26.7193285 229.868,27.694 C231.862677,28.6686715 233.539993,29.9946583 234.9,31.672 C236.260007,33.3493417 237.29133,35.2873223 237.994,37.486 C238.69667,39.6846777 239.048,42.0306542 239.048,44.524 C239.048,47.0173458 238.69667,49.3746556 237.994,51.596 C237.29133,53.8173444 236.260007,55.7553251 234.9,57.41 C233.539993,59.0646749 231.862677,60.3793285 229.868,61.354 C227.873323,62.3286715 225.584013,62.816 223,62.816 C220.415987,62.816 218.126677,62.3286715 216.132,61.354 C214.137323,60.3793285 212.460007,59.0646749 211.1,57.41 C209.739993,55.7553251 208.70867,53.8173444 208.006,51.596 C207.30333,49.3746556 206.952,47.0173458 206.952,44.524 Z M209.536,44.524 C209.536,46.6093438 209.830664,48.6153237 210.42,50.542 C211.009336,52.4686763 211.870661,54.1799925 213.004,55.676 C214.137339,57.1720075 215.542658,58.3619956 217.22,59.246 C218.897342,60.1300044 220.823989,60.572 223,60.572 C225.176011,60.572 227.102658,60.1300044 228.78,59.246 C230.457342,58.3619956 231.862661,57.1720075 232.996,55.676 C234.129339,54.1799925 234.990664,52.4686763 235.58,50.542 C236.169336,48.6153237 236.464,46.6093438 236.464,44.524 C236.464,42.4386562 236.169336,40.4326763 235.58,38.506 C234.990664,36.5793237 234.129339,34.8680075 232.996,33.372 C231.862661,31.8759925 230.457342,30.6860044 228.78,29.802 C227.102658,28.9179956 225.176011,28.476 223,28.476 C220.823989,28.476 218.897342,28.9179956 217.22,29.802 C215.542658,30.6860044 214.137339,31.8759925 213.004,33.372 C211.870661,34.8680075 211.009336,36.5793237 210.42,38.506 C209.830664,40.4326763 209.536,42.4386562 209.536,44.524 Z M245.712,13.448 L248.296,13.448 L248.296,34.46 L248.432,34.46 C248.930669,33.0999932 249.633329,31.9100051 250.54,30.89 C251.446671,29.8699949 252.489327,29.0086702 253.668,28.306 C254.846673,27.6033298 256.115993,27.0820017 257.476,26.742 C258.836007,26.4019983 260.241326,26.232 261.692,26.232 C264.276013,26.232 266.508657,26.6853288 268.39,27.592 C270.271343,28.4986712 271.84666,29.7453254 273.116,31.332 C274.38534,32.9186746 275.325997,34.7659895 275.938,36.874 C276.550003,38.9820105 276.856,41.2599878 276.856,43.708 C276.856,47.8786875 276.289339,51.2219874 275.156,53.738 C274.022661,56.2540126 272.662675,58.18066 271.076,59.518 C269.489325,60.85534 267.834675,61.7393312 266.112,62.17 C264.389325,62.6006688 262.916006,62.816 261.692,62.816 C259.379988,62.816 257.419341,62.453337 255.81,61.728 C254.200659,61.002663 252.874672,60.1526715 251.832,59.178 C250.789328,58.2033285 249.996003,57.2400048 249.452,56.288 C248.907997,55.3359952 248.568001,54.6333356 248.432,54.18 L248.296,54.18 L248.296,62 L245.712,62 L245.712,13.448 Z M261.692,60.572 C264.004012,60.572 265.953325,60.0733383 267.54,59.076 C269.126675,58.0786617 270.418662,56.7753414 271.416,55.166 C272.413338,53.5566586 273.138664,51.7433434 273.592,49.726 C274.045336,47.7086566 274.272,45.7026766 274.272,43.708 C274.272,41.7586569 274.011336,39.8773424 273.49,38.064 C272.968664,36.2506576 272.175339,34.6300071 271.11,33.202 C270.044661,31.7739929 268.730008,30.6293376 267.166,29.768 C265.601992,28.9066624 263.777344,28.476 261.692,28.476 C259.425322,28.476 257.453342,28.8613295 255.776,29.632 C254.098658,30.4026705 252.716005,31.4679932 251.628,32.828 C250.539995,34.1880068 249.724003,35.797324 249.18,37.656 C248.635997,39.514676 248.364,41.5319891 248.364,43.708 C248.364,45.8386773 248.613331,47.9239898 249.112,49.964 C249.610669,52.0040102 250.392661,53.8059922 251.458,55.37 C252.523339,56.9340078 253.894658,58.1919952 255.572,59.144 C257.249342,60.0960048 259.289321,60.572 261.692,60.572 Z M281.276,44.524 C281.276,42.0306542 281.62733,39.6846777 282.33,37.486 C283.03267,35.2873223 284.063993,33.3493417 285.424,31.672 C286.784007,29.9946583 288.461323,28.6686715 290.456,27.694 C292.450677,26.7193285 294.739987,26.232 297.324,26.232 C299.908013,26.232 302.197323,26.7193285 304.192,27.694 C306.186677,28.6686715 307.863993,29.9946583 309.224,31.672 C310.584007,33.3493417 311.61533,35.2873223 312.318,37.486 C313.02067,39.6846777 313.372,42.0306542 313.372,44.524 C313.372,47.0173458 313.02067,49.3746556 312.318,51.596 C311.61533,53.8173444 310.584007,55.7553251 309.224,57.41 C307.863993,59.0646749 306.186677,60.3793285 304.192,61.354 C302.197323,62.3286715 299.908013,62.816 297.324,62.816 C294.739987,62.816 292.450677,62.3286715 290.456,61.354 C288.461323,60.3793285 286.784007,59.0646749 285.424,57.41 C284.063993,55.7553251 283.03267,53.8173444 282.33,51.596 C281.62733,49.3746556 281.276,47.0173458 281.276,44.524 Z M283.86,44.524 C283.86,46.6093438 284.154664,48.6153237 284.744,50.542 C285.333336,52.4686763 286.194661,54.1799925 287.328,55.676 C288.461339,57.1720075 289.866658,58.3619956 291.544,59.246 C293.221342,60.1300044 295.147989,60.572 297.324,60.572 C299.500011,60.572 301.426658,60.1300044 303.104,59.246 C304.781342,58.3619956 306.186661,57.1720075 307.32,55.676 C308.453339,54.1799925 309.314664,52.4686763 309.904,50.542 C310.493336,48.6153237 310.788,46.6093438 310.788,44.524 C310.788,42.4386562 310.493336,40.4326763 309.904,38.506 C309.314664,36.5793237 308.453339,34.8680075 307.32,33.372 C306.186661,31.8759925 304.781342,30.6860044 303.104,29.802 C301.426658,28.9179956 299.500011,28.476 297.324,28.476 C295.147989,28.476 293.221342,28.9179956 291.544,29.802 C289.866658,30.6860044 288.461339,31.8759925 287.328,33.372 C286.194661,34.8680075 285.333336,36.5793237 284.744,38.506 C284.154664,40.4326763 283.86,42.4386562 283.86,44.524 Z M328.128,43.64 L315.344,27.048 L318.948,27.048 L329.896,41.668 L340.912,27.048 L344.244,27.048 L331.596,43.64 L345.4,62 L341.864,62 L329.896,45.612 L317.656,62 L314.392,62 L328.128,43.64 Z" id="Neurobox" fill="#B48DE8" sketch:type="MSShapeGroup"></path>
                <path d="M50,50.5 L26.1559873,72.9133719 L26.1559873,50.9749539 L38.4141802,39.1458966 L50,50.5 Z M23.8951178,72.9393131 L0,50.5 L0,27.9985402 L23.8951178,51.0599603 L23.8951178,72.9393131 Z M25,0 L50.1268247,24.6617517 L24.9831544,48.9536295 L-0.143711671,24.6779632 L25,0 Z" id="Purple-glyph" fill="#B58DE8" sketch:type="MSShapeGroup"></path>
            </g>
        </g>
    </g>
</svg>